<svg xmlns="http://www.w3.org/2000/svg" viewBox="0 0 1920 1080"><g transform="
          rotate(30 960 540) 
          translate(-724.7177209663946 -407.6537180435969)
          scale(1.7549142926733277)
        "><rect width="1920" height="1080" fill="rgb(129, 111, 232)"></rect><g transform="translate(0, 0)"><path fill="rgb(126, 110, 216)" fill-opacity="1" d="M0,176.472L64,175.038C128,173.603,256,170.735,384,170.291C512,169.846,640,171.825,768,172.047C896,172.27,1024,170.736,1152,151.592C1280,132.447,1408,95.692,1536,92.587C1664,89.483,1792,120.03,1856,135.304L1920,150.577L1920,1080L1856,1080C1792,1080,1664,1080,1536,1080C1408,1080,1280,1080,1152,1080C1024,1080,896,1080,768,1080C640,1080,512,1080,384,1080C256,1080,128,1080,64,1080L0,1080Z"></path></g><g transform="translate(0, 180)"><path fill="rgb(124, 109, 199)" fill-opacity="1" d="M0,2.763L64,24.605C128,46.446,256,90.129,384,101.009C512,111.89,640,89.968,768,69.678C896,49.387,1024,30.728,1152,40.359C1280,49.991,1408,87.914,1536,94.752C1664,101.59,1792,77.343,1856,65.22L1920,53.096L1920,900L1856,900C1792,900,1664,900,1536,900C1408,900,1280,900,1152,900C1024,900,896,900,768,900C640,900,512,900,384,900C256,900,128,900,64,900L0,900Z"></path></g><g transform="translate(0, 360)"><path fill="rgb(121, 109, 183)" fill-opacity="1" d="M0,53.02L64,70.624C128,88.229,256,123.439,384,142.349C512,161.259,640,163.869,768,142.337C896,120.806,1024,75.131,1152,56.312C1280,37.492,1408,45.526,1536,63.136C1664,80.747,1792,107.933,1856,121.526L1920,135.119L1920,720L1856,720C1792,720,1664,720,1536,720C1408,720,1280,720,1152,720C1024,720,896,720,768,720C640,720,512,720,384,720C256,720,128,720,64,720L0,720Z"></path></g><g transform="translate(0, 540)"><path fill="rgb(118, 108, 166)" fill-opacity="1" d="M0,168.953L64,155.896C128,142.839,256,116.726,384,90.156C512,63.587,640,36.561,768,21.682C896,6.803,1024,4.071,1152,20.539C1280,37.008,1408,72.679,1536,83.891C1664,95.103,1792,81.857,1856,75.234L1920,68.61L1920,540L1856,540C1792,540,1664,540,1536,540C1408,540,1280,540,1152,540C1024,540,896,540,768,540C640,540,512,540,384,540C256,540,128,540,64,540L0,540Z"></path></g><g transform="translate(0, 720)"><path fill="rgb(116, 107, 149)" fill-opacity="1" d="M0,25.742L64,28.983C128,32.224,256,38.706,384,43.304C512,47.902,640,50.616,768,66.528C896,82.44,1024,111.551,1152,131.375C1280,151.199,1408,161.738,1536,168.059C1664,174.38,1792,176.484,1856,177.536L1920,178.588L1920,360L1856,360C1792,360,1664,360,1536,360C1408,360,1280,360,1152,360C1024,360,896,360,768,360C640,360,512,360,384,360C256,360,128,360,64,360L0,360Z"></path></g><g transform="translate(0, 900)"><path fill="rgb(113, 106, 133)" fill-opacity="1" d="M0,99.242L64,91.423C128,83.604,256,67.967,384,54.318C512,40.67,640,29.011,768,46.237C896,63.462,1024,109.573,1152,136.084C1280,162.595,1408,169.506,1536,173.207C1664,176.908,1792,177.399,1856,177.644L1920,177.889L1920,180L1856,180C1792,180,1664,180,1536,180C1408,180,1280,180,1152,180C1024,180,896,180,768,180C640,180,512,180,384,180C256,180,128,180,64,180L0,180Z"></path></g></g></svg>